<svg width="192" height="108" viewBox="0 0 192 108" fill="none" xmlns="http://www.w3.org/2000/svg">
<path fill-rule="evenodd" clip-rule="evenodd" d="M42.5853 27.234C46.3448 11.6395 61.1314 0 78.7998 0C94.4736 0 107.88 9.16001 113.331 22.1152C119.859 16.7375 128.4 13.4798 137.747 13.4798C153.741 13.4798 167.374 23.0176 172.603 36.393C184.159 42.3321 192 53.8926 192 67.181C192 86.5313 175.372 102.218 154.861 102.218C143.714 102.218 133.714 97.5848 126.907 90.2485C120.432 100.52 108.549 107.402 94.9629 107.402C80.6719 107.402 68.2661 99.7873 62.0561 88.6238C55.5643 93.8667 47.1325 97.0334 37.9167 97.0334C17.4055 97.0334 0.777832 81.3469 0.777832 61.9966C0.777832 42.6463 17.4055 26.9598 37.9167 26.9598C39.4979 26.9598 41.056 27.053 42.5853 27.234Z" fill="white"/>
</svg>
