<svg width="441" height="441" viewBox="0 0 441 441" fill="none" xmlns="http://www.w3.org/2000/svg">
<path d="M384.668 413.665C405.225 397.416 441 405.569 441 405.569V60C441 60 422.36 53.4532 399.676 33.2191C376.992 12.9851 353.576 21.7726 325.575 9.50955C297.575 -2.75351 270.162 -1.68049 240.035 4.45104C209.908 10.5826 177.768 23.7271 139.489 20.9679C101.21 18.2087 89.5949 9.50955 61.1606 27.3761C34.0188 44.4306 0 47.1835 0 47.1835V413.665C0 413.665 31.8868 431.469 61.1606 422.266C91.7409 412.653 138.731 423.928 175.434 434.41C225.045 448.577 263.42 437.744 297.219 422.266C321.321 411.23 364.111 429.913 384.668 413.665Z" fill="#95EF7F"/>
</svg>
