<svg width="70" height="71" viewBox="0 0 70 71" fill="none" xmlns="http://www.w3.org/2000/svg">
<path d="M67.3483 50.2466C63.3895 58.4914 59.9238 63.734 51.3061 66.9429C42.6885 70.1519 32.7325 71.4169 21.4381 70.7381C10.1438 70.0593 3.38676 64.3819 1.16706 53.706C-1.05264 43.0301 -0.106004 33.249 4.00697 24.3627C8.11994 15.4764 14.877 8.71907 24.278 4.09079C33.6791 -0.537502 42.6232 -0.105528 51.1103 5.38671C59.5974 10.8789 62.1174 16.4906 67.1525 25.9944C69.6184 30.6488 71.9943 40.5709 67.3483 50.2466Z" fill="#3B5998"/>
<path d="M25.8102 20.6458C27.8127 14.2661 35.0317 14.0409 43.484 14.0409C47.8372 14.0409 50.4491 22.5973 44.5288 22.3721C38.6085 22.147 35.8225 24.3236 35.8225 28.4517C35.8225 30.5532 35.7636 33.2553 41.6557 33.2553C47.0536 33.2553 45.4865 42.1119 40.8721 42.1119C36.2578 42.1119 35.8225 42.1119 35.8225 53.7456C35.8225 62.0018 34.2553 66.0548 29.3798 66.0548C26.4949 66.0548 25.8102 57.7986 25.8102 53.7456C25.8102 41.4364 26.1585 41.7366 21.37 42.1119C16.5816 42.4872 11.706 33.4054 21.37 33.2553C31.034 33.1051 23.8078 27.0256 25.8102 20.6458Z" fill="white"/>
</svg>
