<svg width="70" height="71" viewBox="0 0 70 71" fill="none" xmlns="http://www.w3.org/2000/svg">
<path d="M66.8347 49.4052C61.9837 59.0507 55.3483 65.4384 46.9287 68.5684C38.5091 71.6984 30.0894 71.6984 21.6698 68.5684C13.2502 65.4384 6.94939 59.0507 2.76746 49.4052C-1.41448 39.7598 -0.856887 30.7531 4.44023 22.3852C9.73735 14.0173 16.0381 7.82117 23.3426 3.7969C30.647 -0.227364 37.7842 -0.0357321 44.7541 4.3718C51.724 8.77933 58.3593 14.9754 64.6601 22.9601C70.9609 30.9447 71.6857 39.7598 66.8347 49.4052Z" fill="white"/>
<path d="M50.5556 20.4165C51.5278 21.5832 46.4292 28.2093 43.9931 26.2498C32.8125 17.2568 24.3056 29.4095 23.3334 32.0831C22.3612 34.7568 14.0775 30.8679 16.5278 26.7359C28.9237 5.83315 49.3403 18.9582 50.5556 20.4165Z" fill="#EB4335"/>
<path d="M16.465 45.6003C13.7066 43.4632 12.7467 30.4014 16.9761 26.4761C18.2676 25.2775 25.118 29.1105 23.6204 31.625C22.5982 33.3412 22.5294 39.3599 24.0627 41.0762C25.4341 42.6113 17.5124 46.4118 16.465 45.6003Z" fill="#FBBC05"/>
<path d="M49.0974 52.4999C33.2988 64.4097 16.2849 48.854 16.2849 44.7221C16.2849 42.7776 22.6044 38.6457 23.8196 40.8332C26.6254 45.8835 36.2155 52.0137 44.2363 45.9373C46.231 44.4261 51.0419 51.0341 49.0974 52.4999Z" fill="#34A853"/>
<path d="M55.417 32.0831C54.6918 30.1713 37.1878 31.111 35.7295 32.0831C33.542 33.5414 33.785 40.8331 35.9725 39.8609C38.16 38.8887 45.9378 38.6457 47.1531 40.347C48.6747 42.4772 44.4795 45.2081 43.2642 47.1526C42.0489 49.097 44.9656 53.4721 48.6114 52.4998C52.4055 51.488 58.0906 39.1317 55.417 32.0831Z" fill="#4285F4"/>
</svg>
