<svg width="40" height="40" viewBox="0 0 40 40" fill="none" xmlns="http://www.w3.org/2000/svg">
<path fill-rule="evenodd" clip-rule="evenodd" d="M20 -1.74846e-06C8.95431 -2.7141e-06 2.7141e-06 8.9543 1.74846e-06 20C7.8281e-07 31.0457 8.95431 40 20 40C31.0457 40 40 31.0457 40 20C40 8.95431 31.0457 -7.8281e-07 20 -1.74846e-06ZM10.1994 21.9867C9.97992 20.9042 10.8955 20 12 20L20 20L28 20C29.1046 20 30.0201 20.9042 29.8007 21.9867C29.6733 22.6152 29.4854 23.2315 29.2388 23.8268C28.7363 25.0401 27.9997 26.1425 27.0711 27.0711C26.1425 27.9997 25.0401 28.7363 23.8269 29.2388C22.6136 29.7414 21.3132 30 20 30C18.6868 30 17.3864 29.7414 16.1732 29.2388C14.9599 28.7363 13.8575 27.9997 12.929 27.0711C12.0004 26.1425 11.2638 25.0401 10.7612 23.8268C10.5146 23.2315 10.3268 22.6152 10.1994 21.9867Z" fill="#004368"/>
</svg>
