<svg width="41" height="40" viewBox="0 0 41 40" fill="none" xmlns="http://www.w3.org/2000/svg">
<path fill-rule="evenodd" clip-rule="evenodd" d="M20.5 -1.74846e-06C9.45431 -2.7141e-06 0.500003 8.9543 0.500002 20C0.500001 31.0457 9.45431 40 20.5 40C31.5457 40 40.5 31.0457 40.5 20C40.5 8.95431 31.5457 -7.8281e-07 20.5 -1.74846e-06ZM10.6994 21.9867C10.4799 20.9042 11.3955 20 12.5 20L13.5365 20C14.6209 20 15.4656 20.9116 15.8806 21.9134C16.1319 22.5201 16.5002 23.0713 16.9645 23.5355C17.4288 23.9998 17.98 24.3681 18.5866 24.6194C19.1932 24.8707 19.8434 25 20.5 25C21.1566 25 21.8068 24.8707 22.4134 24.6194C23.0201 24.3681 23.5713 23.9998 24.0356 23.5355C24.4999 23.0713 24.8681 22.5201 25.1194 21.9134C25.5344 20.9116 26.3791 20 27.4635 20L28.5 20C29.6046 20 30.5201 20.9042 30.3007 21.9867C30.1733 22.6152 29.9854 23.2315 29.7388 23.8268C29.2363 25.0401 28.4997 26.1425 27.5711 27.0711C26.6425 27.9997 25.5401 28.7363 24.3269 29.2388C23.1136 29.7414 21.8132 30 20.5 30C19.1868 30 17.8864 29.7414 16.6732 29.2388C15.4599 28.7363 14.3575 27.9997 13.429 27.0711C12.5004 26.1425 11.7638 25.0401 11.2612 23.8268C11.0146 23.2315 10.8268 22.6152 10.6994 21.9867Z" fill="#004368"/>
</svg>
