<svg width="41" height="40" viewBox="0 0 41 40" fill="none" xmlns="http://www.w3.org/2000/svg">
<path fill-rule="evenodd" clip-rule="evenodd" d="M20.5 -1.74846e-06C9.45431 -2.7141e-06 0.500003 8.9543 0.500002 20C0.500001 31.0457 9.45431 40 20.5 40C31.5457 40 40.5 31.0457 40.5 20C40.5 8.95431 31.5457 -7.8281e-07 20.5 -1.74846e-06ZM30.3007 28.0133C30.5201 29.0959 29.6046 30 28.5 30L27.4635 30C26.3791 30 25.5344 29.0885 25.1194 28.0866C24.8681 27.48 24.4998 26.9288 24.0356 26.4645C23.5713 26.0002 23.0201 25.6319 22.4134 25.3806C21.8068 25.1293 21.1566 25 20.5 25C19.8434 25 19.1932 25.1293 18.5866 25.3806C17.98 25.6319 17.4288 26.0002 16.9645 26.4645C16.5002 26.9288 16.1319 27.48 15.8806 28.0866C15.4656 29.0885 14.6209 30 13.5365 30L12.5 30C11.3955 30 10.4799 29.0959 10.6994 28.0133C10.8268 27.3848 11.0146 26.7685 11.2612 26.1732C11.7638 24.9599 12.5004 23.8575 13.429 22.9289C14.3575 22.0004 15.4599 21.2638 16.6732 20.7612C17.8864 20.2587 19.1868 20 20.5 20C21.8132 20 23.1136 20.2587 24.3269 20.7612C25.5401 21.2638 26.6425 22.0004 27.5711 22.9289C28.4997 23.8575 29.2363 24.9599 29.7388 26.1732C29.9854 26.7685 30.1733 27.3848 30.3007 28.0133Z" fill="#004368"/>
</svg>
