<svg width="40" height="40" viewBox="0 0 40 40" fill="none" xmlns="http://www.w3.org/2000/svg">
<path fill-rule="evenodd" clip-rule="evenodd" d="M20 -1.74846e-06C8.95431 -2.7141e-06 2.7141e-06 8.9543 1.74846e-06 20C7.8281e-07 31.0457 8.95431 40 20 40C31.0457 40 40 31.0457 40 20C40 8.95431 31.0457 -7.8281e-07 20 -1.74846e-06ZM29.8007 28.0133C30.0201 29.0958 29.1046 30 28 30L20 30L12 30C10.8954 30 9.97991 29.0958 10.1994 28.0133C10.3268 27.3848 10.5146 26.7685 10.7612 26.1732C11.2638 24.9599 12.0004 23.8575 12.929 22.9289C13.8575 22.0003 14.9599 21.2637 16.1732 20.7612C17.3864 20.2587 18.6868 20 20 20C21.3132 20 22.6136 20.2587 23.8269 20.7612C25.0401 21.2638 26.1425 22.0003 27.0711 22.9289C27.9997 23.8575 28.7363 24.9599 29.2388 26.1732C29.4854 26.7685 29.6733 27.3848 29.8007 28.0133Z" fill="#004368"/>
</svg>
