<svg width="61" height="60" viewBox="0 0 61 60" fill="none" xmlns="http://www.w3.org/2000/svg">
<path d="M58.0303 44.9386C54.6192 53.4577 47.9993 58.3522 38.1705 59.6222C28.3418 60.8921 19.3515 58.9608 11.1994 53.8281C3.04739 48.6955 -0.334836 41.7638 1.05275 33.033C2.44033 24.3022 6.25618 16.1006 12.5003 8.42812C18.7444 0.755624 27.2433 -1.67841 37.9971 1.12602C48.7509 3.93045 55.6309 9.80388 58.6374 18.7463C61.6438 27.6887 61.4414 36.4195 58.0303 44.9386Z" fill="#90C8F1"/>
<path fill-rule="evenodd" clip-rule="evenodd" d="M37.287 29.3938C37.503 29.2543 37.7184 29.1153 37.9343 28.9785C40.6142 27.2811 41.7586 24.342 41.7586 20.8938C41.7586 14.5991 37.7191 9.16772 31.0529 9.16772C24.3868 9.16772 19.4026 13.5969 19.4026 19.8915C19.4026 23.4552 20.1824 26.7354 23.1561 28.7569C24.7343 29.8297 28.2979 32.0718 30.8302 31.9404C33.5622 31.7986 35.4503 30.5796 37.287 29.3938ZM51.3547 41.2327C51.1735 37.8578 46.8487 33.6555 40.8269 31.8259C39.224 31.3389 37.6985 32.1905 36.058 33.1065C34.5819 33.9306 33.0127 34.8067 31.2101 34.8067C29.4364 34.8067 27.9093 34.0683 26.4518 33.3636C24.9082 32.6173 23.4426 31.9086 21.8448 32.1547C12.9863 33.5191 10.1377 36.5233 10.1377 41.3592C10.1377 47.5797 18.7522 49.332 29.8848 50.5975C41.5865 51.9277 51.6884 47.445 51.3547 41.2327Z" fill="#004368"/>
</svg>
