<svg width="61" height="60" viewBox="0 0 61 60" fill="none" xmlns="http://www.w3.org/2000/svg">
<path d="M4.44509 40.3848C9.62582 47.5159 16.756 53.255 25.8356 57.602C34.9153 61.949 42.5529 60.3861 48.7484 52.9131C54.9439 45.4401 58.8161 37.3566 60.365 28.6625C61.9139 19.9684 58.7894 12.3245 50.9916 5.73067C43.1938 -0.863138 35.0488 -1.76674 26.5567 3.01988C18.0645 7.8065 10.9611 13.4479 5.24623 19.944C-0.468605 26.4401 -0.73565 33.2537 4.44509 40.3848Z" fill="#90C8F1"/>
<path fill-rule="evenodd" clip-rule="evenodd" d="M28.299 35.8075C28.2979 35.8059 28.2968 35.8043 28.2957 35.8027C30.9884 30.7395 35.2321 26.7257 37.4999 24.7995C37.7583 24.58 37.5515 24.2332 37.256 24.3965C34.9842 25.6519 30.9635 28.5057 27.6203 34.2185C25.8566 27.9163 30.1526 13.7835 53.498 14.9345C54.1798 14.9681 54.4798 15.8716 53.9902 16.3767C50.2103 20.2764 48.661 23.5671 47.2368 26.592C45.7742 29.6985 44.4436 32.5247 40.9645 35.4424C39.6916 36.5098 35.8281 37.6133 32.6158 37.5004C30.0788 37.6953 27.464 41.6904 26.5095 48.037C26.3497 49.0994 25.293 49.1837 25.2663 48.1032C25.1472 43.2959 27.1581 38.0307 28.299 35.8075ZM29.6423 21.7124C27.6656 18.5225 23.6635 15.9339 16.5208 16.2863C14.9612 16.3633 14.3184 18.265 15.179 19.62C16.4904 21.6848 17.1522 23.5547 17.7723 25.3071C18.6059 27.6628 19.3644 29.8059 21.5248 31.9241C22.1841 32.5705 24.1988 32.9908 26.1849 32.8726C25.8293 29.6745 26.6885 25.5862 29.3935 22.0313C29.4748 21.9245 29.5577 21.8182 29.6423 21.7124Z" fill="#004368"/>
</svg>
