<svg width="61" height="61" viewBox="0 0 61 61" fill="none" xmlns="http://www.w3.org/2000/svg">
<path d="M55.5695 39.9213C49.699 47.7314 43.0077 53.7664 35.4954 58.0264C27.9832 62.2865 20.7198 61.0439 13.705 54.2989C6.69032 47.5539 2.33721 38.3534 0.645716 26.6975C-1.04578 15.0416 2.68546 7.61617 11.8394 4.42116C20.9934 1.22614 29.4508 -0.0163664 37.2118 0.693637C44.9728 1.40364 51.4403 6.16658 56.6142 14.9825C61.7882 23.7983 61.44 32.1113 55.5695 39.9213Z" fill="#FDE722"/>
<path fill-rule="evenodd" clip-rule="evenodd" d="M32.4776 12.484C39.4339 10.7503 42.7289 16.7458 39.9327 22.7616C45.4444 22.9104 50.6381 26.0833 50.3477 32.1724C50.069 38.0134 43.5985 40.1927 37.0703 38.3677C39.324 42.0801 39.2718 46.1541 35.5819 47.7827C27.7004 51.2612 22.8792 45.3946 22.6742 38.9985C18.7837 41.9273 13.3988 42.5865 11.0009 39.4931C8.05844 35.6971 13.0737 29.9829 18.8565 28.1894C12.9094 25.6487 12.5427 19.8673 16.5936 16.445C20.8338 12.8628 24.6524 14.1568 26.9837 17.2595C27.7227 15.0399 29.4645 13.2349 32.4776 12.484ZM30.5095 35.8785C33.4014 35.5685 35.786 32.4226 35.5052 29.489C35.2243 26.5555 32.3966 23.9682 29.5048 24.2782C26.6129 24.5881 23.758 27.2424 24.0389 30.176C24.3197 33.1096 27.6176 36.1885 30.5095 35.8785Z" fill="#FF6F66"/>
</svg>
