<svg width="60" height="61" viewBox="0 0 60 61" fill="none" xmlns="http://www.w3.org/2000/svg">
<path d="M3.69509 40.8848C8.87582 48.0159 16.006 53.755 25.0857 58.102C34.1653 62.449 41.8029 60.8861 47.9984 53.4131C54.1939 45.9401 58.0661 37.8566 59.615 29.1625C61.1639 20.4684 58.0394 12.8245 50.2416 6.23067C42.4438 -0.363138 34.2988 -1.26674 25.8067 3.51988C17.3145 8.3065 10.2111 13.9479 4.49623 20.444C-1.21861 26.9401 -1.48565 33.7537 3.69509 40.8848Z" fill="#F9814E"/>
<path fill-rule="evenodd" clip-rule="evenodd" d="M27.549 36.3075C27.5479 36.3059 27.5468 36.3043 27.5457 36.3027C30.2384 31.2395 34.4821 27.2257 36.7499 25.2995C37.0083 25.08 36.8015 24.7332 36.506 24.8965C34.2342 26.1519 30.2135 29.0057 26.8703 34.7185C25.1066 28.4163 29.4026 14.2835 52.748 15.4345C53.4298 15.4681 53.7298 16.3716 53.2402 16.8767C49.4603 20.7764 47.911 24.0671 46.4868 27.092C45.0242 30.1985 43.6936 33.0247 40.2145 35.9424C38.9416 37.0098 35.0781 38.1133 31.8658 38.0004C29.3288 38.1953 26.714 42.1904 25.7595 48.537C25.5997 49.5994 24.543 49.6837 24.5163 48.6032C24.3972 43.7959 26.4081 38.5307 27.549 36.3075ZM28.8923 22.2124C26.9156 19.0225 22.9135 16.4339 15.7708 16.7863C14.2112 16.8633 13.5684 18.765 14.429 20.12C15.7404 22.1848 16.4022 24.0547 17.0223 25.8071C17.8559 28.1628 18.6144 30.3059 20.7748 32.4241C21.4341 33.0705 23.4488 33.4908 25.4349 33.3726C25.0793 30.1745 25.9385 26.0862 28.6435 22.5313C28.7248 22.4245 28.8077 22.3182 28.8923 22.2124Z" fill="#48E645"/>
</svg>
