<svg width="61" height="60" viewBox="0 0 61 60" fill="none" xmlns="http://www.w3.org/2000/svg">
<path d="M56.0695 39.4213C50.199 47.2314 43.5077 53.2664 35.9954 57.5264C28.4832 61.7865 21.2198 60.544 14.205 53.7989C7.19032 47.0539 2.83721 37.8534 1.14572 26.1975C-0.545777 14.5416 3.18546 7.11617 12.3394 3.92116C21.4934 0.72614 29.9508 -0.516366 37.7118 0.193637C45.4728 0.903641 51.9403 5.66658 57.1142 14.4825C62.2882 23.2983 61.94 31.6113 56.0695 39.4213Z" fill="#90C8F1"/>
<path fill-rule="evenodd" clip-rule="evenodd" d="M32.9776 11.9839C39.9339 10.2503 43.2289 16.2458 40.4327 22.2615C45.9444 22.4104 51.1381 25.5832 50.8476 31.6723C50.569 37.5133 44.0985 39.6926 37.5703 37.8676C39.824 41.5801 39.7718 45.6541 36.0819 47.2826C28.2004 50.7611 23.3792 44.8945 23.1742 38.4985C19.2837 41.4273 13.8988 42.0864 11.5009 38.993C8.55844 35.197 13.5737 29.4829 19.3565 27.6894C13.4094 25.1486 13.0427 19.3672 17.0936 15.9449C21.3338 12.3627 25.1524 13.6567 27.4837 16.7594C28.2227 14.5398 29.9645 12.7348 32.9776 11.9839ZM31.0095 35.3784C33.9014 35.0685 36.286 31.9225 36.0052 28.989C35.7243 26.0554 32.8967 23.4681 30.0048 23.7781C27.1129 24.0881 24.258 26.7424 24.5389 29.6759C24.8197 32.6095 28.1176 35.6884 31.0095 35.3784Z" fill="#004368"/>
</svg>
