<svg width="61" height="60" viewBox="0 0 61 60" fill="none" xmlns="http://www.w3.org/2000/svg">
<path d="M58.1966 45.6232C54.3319 56.3094 47.856 61.0384 38.7688 59.8101C29.6816 58.5818 22.0568 55.511 15.8942 50.5978C9.73162 45.6847 5.08358 37.8236 1.95007 27.0146C-1.18344 16.2056 1.81951 8.77437 10.9589 4.72099C20.0983 0.667615 28.7677 -0.775633 36.967 0.391248C45.1664 1.55813 51.7206 6.71697 56.6298 15.8678C61.539 25.0186 62.0612 34.9371 58.1966 45.6232Z" fill="#90C8F1"/>
<path fill-rule="evenodd" clip-rule="evenodd" d="M51.4131 21.9202C50.6322 19.741 49.4974 17.7303 48.0779 15.9574C46.8715 14.4505 45.4596 13.1155 43.8845 11.9946C40.4904 9.57924 36.339 8.15881 31.8559 8.15881C29.1271 8.15881 26.5212 8.68508 24.1341 9.64166C18.4026 11.9385 13.933 16.7162 12.0536 22.6464C11.4255 24.6281 11.0867 26.7385 11.0867 28.928C11.0867 40.3986 20.3854 49.6973 31.8559 49.6973C39.8393 49.6973 46.7706 45.193 50.2472 38.5871C51.7657 35.7016 52.6251 32.4152 52.6251 28.928C52.6251 26.4688 52.1977 24.1095 51.4131 21.9202ZM43.6494 40.8494C46.7217 37.8099 48.6251 33.5913 48.6251 28.928C48.6251 26.9681 48.2889 25.0867 47.671 23.3384C47.1241 23.6328 46.5725 23.9463 46.0366 24.2508L45.9432 24.3039C44.1746 25.3088 43.8523 24.715 43.3481 23.7859C42.9708 23.0908 42.4916 22.2078 41.2284 21.6664C38.2769 20.4015 34.3623 24.5874 34.2105 26.3703C34.049 28.2678 34.7878 29.9178 35.3726 31.2238C35.7358 32.0351 36.0396 32.7137 36.0314 33.2365C36.003 35.0294 35.4881 37.4845 34.6291 38.5695C34.4935 38.7409 34.3526 38.9068 34.2119 39.0724C33.2501 40.2049 32.2984 41.3255 33.0831 44.1212C34.6994 45.7375 36.4563 45.0347 39.6889 42.9968C40.9155 42.2235 42.2673 41.4929 43.6494 40.8494ZM45.6063 19.3269C44.0028 17.0348 41.8409 15.1621 39.3179 13.9064C38.8853 14.3058 38.4408 14.7745 37.9852 15.3195C37.8951 17.9017 42.3918 18.9867 45.6063 19.3269ZM32.331 12.1654C32.1731 12.161 32.0148 12.1588 31.8559 12.1588C22.5945 12.1588 15.0867 19.6667 15.0867 28.928C15.0867 30.3657 15.2676 31.7612 15.6079 33.0928C15.8935 33.3239 16.1769 33.5459 16.4499 33.7597C17.16 34.3159 17.7987 34.8162 18.2167 35.2745C18.6784 35.7806 18.9424 36.6268 19.2307 37.5512C19.8819 39.6394 20.6576 42.1265 24.1193 41.9926C24.8096 41.2038 24.4928 40.1337 24.1402 38.9427C23.6789 37.3846 23.1564 35.6197 24.7474 34.0072C24.9348 33.8173 25.1151 33.6365 25.2874 33.4636L25.2878 33.4632C27.6968 31.0469 28.5532 30.1878 25.5796 27.816C24.617 27.0482 23.3753 26.2903 22.1674 25.5532L22.1674 25.5532C19.3773 23.8502 16.768 22.2577 18.1976 20.9075C18.3493 20.7642 18.4943 20.6255 18.6342 20.4917C20.3833 18.8184 21.3408 17.9025 24.783 18.2186C28.5006 18.56 34.4563 14.5769 33.3941 13.6665C33.1851 13.2507 32.8297 12.715 32.331 12.1654Z" fill="#004368"/>
</svg>
