<svg width="61" height="61" viewBox="0 0 61 61" fill="none" xmlns="http://www.w3.org/2000/svg">
<path d="M58.1966 46.1232C54.3319 56.8094 47.856 61.5384 38.7688 60.3101C29.6816 59.0818 22.0568 56.011 15.8942 51.0978C9.73162 46.1847 5.08358 38.3236 1.95007 27.5146C-1.18344 16.7056 1.81951 9.27437 10.9589 5.22099C20.0983 1.16761 28.7677 -0.275633 36.967 0.891248C45.1664 2.05813 51.7206 7.21697 56.6298 16.3678C61.539 25.5186 62.0612 35.4371 58.1966 46.1232Z" fill="#95EF7F"/>
<path fill-rule="evenodd" clip-rule="evenodd" d="M51.4131 22.4202C50.6322 20.241 49.4974 18.2303 48.0779 16.4574C46.8715 14.9505 45.4596 13.6155 43.8845 12.4946C40.4904 10.0792 36.339 8.65881 31.8559 8.65881C29.1271 8.65881 26.5212 9.18508 24.1341 10.1417C18.4026 12.4385 13.933 17.2162 12.0536 23.1464C11.4255 25.1281 11.0867 27.2385 11.0867 29.428C11.0867 40.8986 20.3854 50.1973 31.8559 50.1973C39.8393 50.1973 46.7706 45.693 50.2472 39.0871C51.7657 36.2016 52.6251 32.9152 52.6251 29.428C52.6251 26.9688 52.1977 24.6095 51.4131 22.4202ZM43.6494 41.3494C46.7217 38.3099 48.6251 34.0913 48.6251 29.428C48.6251 27.4681 48.2889 25.5867 47.671 23.8384C47.1241 24.1328 46.5725 24.4463 46.0366 24.7508L45.9432 24.8039C44.1746 25.8088 43.8523 25.215 43.3481 24.2859C42.9708 23.5908 42.4916 22.7078 41.2284 22.1664C38.2769 20.9015 34.3623 25.0874 34.2105 26.8703C34.049 28.7678 34.7878 30.4178 35.3726 31.7238C35.7358 32.5351 36.0396 33.2137 36.0314 33.7365C36.003 35.5294 35.4881 37.9845 34.6291 39.0695C34.4935 39.2409 34.3526 39.4068 34.2119 39.5724C33.2501 40.7049 32.2984 41.8255 33.0831 44.6212C34.6994 46.2375 36.4563 45.5347 39.6889 43.4968C40.9155 42.7235 42.2673 41.9929 43.6494 41.3494ZM45.6063 19.8269C44.0028 17.5348 41.8409 15.6621 39.3179 14.4064C38.8853 14.8058 38.4408 15.2745 37.9852 15.8195C37.8951 18.4017 42.3918 19.4867 45.6063 19.8269ZM32.331 12.6654C32.1731 12.661 32.0148 12.6588 31.8559 12.6588C22.5945 12.6588 15.0867 20.1667 15.0867 29.428C15.0867 30.8657 15.2676 32.2612 15.6079 33.5928C15.8935 33.8239 16.1769 34.0459 16.4499 34.2597C17.16 34.8159 17.7987 35.3162 18.2167 35.7745C18.6784 36.2806 18.9424 37.1268 19.2307 38.0512C19.8819 40.1394 20.6576 42.6265 24.1193 42.4926C24.8096 41.7038 24.4928 40.6337 24.1402 39.4427C23.6789 37.8846 23.1564 36.1197 24.7474 34.5072C24.9348 34.3173 25.1151 34.1365 25.2874 33.9636L25.2878 33.9632C27.6968 31.5469 28.5532 30.6878 25.5796 28.316C24.617 27.5482 23.3753 26.7903 22.1674 26.0532L22.1674 26.0532C19.3773 24.3502 16.768 22.7577 18.1976 21.4075C18.3493 21.2642 18.4943 21.1255 18.6342 20.9917C20.3833 19.3184 21.3408 18.4025 24.783 18.7186C28.5006 19.06 34.4563 15.0769 33.3941 14.1665C33.1851 13.7507 32.8297 13.215 32.331 12.6654Z" fill="#2696E8"/>
</svg>
