<svg width="60" height="61" viewBox="0 0 60 61" fill="none" xmlns="http://www.w3.org/2000/svg">
<path d="M57.2803 45.4386C53.8692 53.9577 47.2493 58.8522 37.4205 60.1222C27.5918 61.3921 18.6015 59.4608 10.4494 54.3281C2.29739 49.1955 -1.08484 42.2638 0.302745 33.533C1.69033 24.8022 5.50618 16.6006 11.7503 8.92812C17.9944 1.25562 26.4933 -1.17841 37.2471 1.62602C48.0009 4.43045 54.881 10.3039 57.8874 19.2463C60.8938 28.1887 60.6914 36.9195 57.2803 45.4386Z" fill="#6DD9C5"/>
<path fill-rule="evenodd" clip-rule="evenodd" d="M36.537 29.8938C36.753 29.7543 36.9684 29.6153 37.1843 29.4785C39.8642 27.7811 41.0086 24.842 41.0086 21.3938C41.0086 15.0991 36.9691 9.66772 30.3029 9.66772C23.6368 9.66772 18.6526 14.0969 18.6526 20.3915C18.6526 23.9552 19.4324 27.2354 22.4061 29.2569C23.9843 30.3297 27.5479 32.5718 30.0802 32.4404C32.8122 32.2986 34.7003 31.0796 36.537 29.8938ZM50.6047 41.7327C50.4235 38.3578 46.0987 34.1555 40.0769 32.3259C38.474 31.8389 36.9485 32.6905 35.308 33.6065C33.8319 34.4306 32.2627 35.3067 30.4601 35.3067C28.6864 35.3067 27.1593 34.5683 25.7018 33.8636C24.1582 33.1173 22.6926 32.4086 21.0948 32.6547C12.2363 34.0191 9.3877 37.0233 9.3877 41.8592C9.3877 48.0797 18.0022 49.832 29.1348 51.0975C40.8365 52.4277 50.9384 47.945 50.6047 41.7327Z" fill="#FCFF80"/>
</svg>
