<svg width="26" height="27" viewBox="0 0 26 27" fill="none" xmlns="http://www.w3.org/2000/svg">
<path d="M9.12679 3.51487C10.1589 -0.486293 15.8411 -0.486291 16.8732 3.51487L17.5372 6.08876C17.9008 7.49841 19.0016 8.59921 20.4112 8.96284L22.9851 9.62679C26.9863 10.6589 26.9863 16.3411 22.9851 17.3732L20.4112 18.0372C19.0016 18.4008 17.9008 19.5016 17.5372 20.9112L16.8732 23.4851C15.8411 27.4863 10.1589 27.4863 9.12679 23.4851L8.46284 20.9112C8.09921 19.5016 6.99841 18.4008 5.58875 18.0372L3.01487 17.3732C-0.986293 16.3411 -0.986291 10.6589 3.01487 9.62679L5.58876 8.96284C6.99841 8.59921 8.09921 7.49841 8.46284 6.08875L9.12679 3.51487Z" fill="#004368"/>
</svg>
