<svg width="86" height="87" viewBox="0 0 86 87" fill="none" xmlns="http://www.w3.org/2000/svg">
<path fill-rule="evenodd" clip-rule="evenodd" d="M56.4475 42.5884C56.892 42.3013 57.3351 42.0152 57.7793 41.7337C63.2924 38.2402 65.6468 32.191 65.6468 25.0939C65.6468 12.1385 57.3365 0.959839 43.6228 0.959839C29.909 0.959839 19.6555 10.0757 19.6555 23.0312C19.6555 30.3658 21.2596 37.1169 27.3772 41.2775C30.6239 43.4855 37.955 48.1001 43.1646 47.8296C48.7849 47.5378 52.669 45.029 56.4475 42.5884ZM85.3881 66.9546C85.0152 60.0086 76.1183 51.3595 63.73 47.5939C60.4325 46.5915 57.2943 48.3444 53.9192 50.2296C50.8827 51.9256 47.6545 53.7288 43.946 53.7288C40.2973 53.7288 37.1557 52.2092 34.1572 50.7587C30.9816 49.2227 27.9666 47.7642 24.6796 48.2707C6.45564 51.0787 0.595459 57.262 0.595459 67.2151C0.59546 80.0177 18.3174 83.6243 41.2196 86.2289C65.2926 88.9666 86.0744 79.7405 85.3881 66.9546Z" fill="#004368"/>
</svg>
