<svg width="49" height="49" viewBox="0 0 49 49" fill="none" xmlns="http://www.w3.org/2000/svg">
<path fill-rule="evenodd" clip-rule="evenodd" d="M28.9434 4.05054C27.8738 -0.684489 21.1271 -0.68449 20.0576 4.05054C19.3644 7.11932 15.8428 8.57801 13.1827 6.89821C9.0782 4.30635 4.30756 9.07698 6.89943 13.1814C8.57923 15.8416 7.12054 19.3632 4.05176 20.0563C-0.683268 21.1259 -0.683268 27.8726 4.05176 28.9422C7.12054 29.6354 8.57923 33.157 6.89943 35.8171C4.30756 39.9215 9.0782 44.6922 13.1827 42.1003C15.8428 40.4205 19.3644 41.8792 20.0576 44.948C21.1271 49.683 27.8738 49.683 28.9434 44.948C29.6366 41.8792 33.1582 40.4205 35.8183 42.1003C39.9228 44.6922 44.6934 39.9215 42.1016 35.8171C40.4218 33.157 41.8804 29.6354 44.9492 28.9422C49.6842 27.8726 49.6842 21.1259 44.9492 20.0563C41.8804 19.3632 40.4218 15.8416 42.1015 13.1814C44.6934 9.07698 39.9228 4.30635 35.8183 6.89821C33.1582 8.57801 29.6366 7.11932 28.9434 4.05054ZM24.5001 34.5295C30.0392 34.5295 34.5296 30.0392 34.5296 24.5001C34.5296 18.961 30.0392 14.4706 24.5001 14.4706C18.961 14.4706 14.4707 18.961 14.4707 24.5001C14.4707 30.0392 18.961 34.5295 24.5001 34.5295Z" fill="#004368"/>
</svg>
