<svg width="70" height="71" viewBox="0 0 70 71" fill="none" xmlns="http://www.w3.org/2000/svg">
<path d="M66.5152 47.4256C62.0521 55.6305 55.5338 62.0932 46.96 66.8138C38.3863 71.5345 29.1373 72.1807 19.2129 68.7527C9.28854 65.3246 3.23996 58.8618 1.06717 49.3644C-1.10562 39.867 0.0394957 31.4654 4.50253 24.1597C8.96556 16.854 15.0141 10.5879 22.6483 5.36152C30.2824 0.135121 38.5625 -0.483055 47.4886 3.50699C56.4146 7.49704 62.933 13.7631 67.0437 22.3052C71.1544 30.8472 70.9782 39.2207 66.5152 47.4256Z" fill="#1DA1F2"/>
<path d="M53.1312 27.1986C53.5599 44.6528 32.8747 61.8927 12.4038 50.9705C10.5818 49.9983 19.0488 51.613 25.5866 47.0085C14.8689 42.4041 17.0124 39.9413 21.4067 40.3696C17.4411 37.7997 14.1186 35.3368 13.6899 31.1606C13.4873 29.1865 20.1539 33.4702 18.5129 32.2314C13.6899 28.5907 12.8462 19.0605 15.1904 19.5959C18.9416 20.4527 32.868 35.0155 34.8039 25.9137C36.6259 17.3473 44.8786 15.7411 50.559 20.7739C52.0696 22.1123 53.9886 19.8101 56.2394 18.5252C56.025 21.0951 53.9886 23.0225 52.2738 23.665C53.9886 24.0933 55.9246 22.7382 57.847 22.3801C57.204 24.7358 53.107 26.2117 53.1312 27.1986Z" fill="white"/>
</svg>
