<svg width="441" height="101" viewBox="0 0 441 101" fill="none" xmlns="http://www.w3.org/2000/svg">
<path d="M4.59375 90.0527L0 88.0673V0.5H441V80.9287L436.406 82.5126C431.812 84.1262 422.625 87.2493 413.438 88.4614C404.25 89.6289 395.062 88.8853 385.875 89.6512C376.688 90.4469 367.5 92.8264 358.312 91.2425C349.125 89.6289 339.938 84.1262 330.75 82.1184C321.562 80.1107 312.375 81.7466 303.188 85.6878C294 89.6289 284.812 96.0239 275.625 97.1914C266.438 98.4035 257.25 94.388 248.062 92.8264C238.875 91.2648 229.688 92.0084 220.5 93.2205C211.312 94.388 202.125 96.0239 192.938 94.8118C183.75 93.6444 174.562 89.6289 165.375 87.6732C156.188 85.6878 147 85.6878 137.812 88.0673C128.625 90.4469 119.438 95.2059 110.25 97.9796C101.062 100.783 91.875 101.527 82.6875 98.7753C73.5 96.0239 64.3125 89.6289 55.125 89.2571C45.9375 88.8853 36.75 94.388 27.5625 95.2059C18.375 96.0239 9.1875 92.0084 4.59375 90.0527Z" fill="#BD83EB"/>
</svg>
