<svg width="441" height="101" viewBox="0 0 441 101" fill="none" xmlns="http://www.w3.org/2000/svg">
<path d="M5.23688 91.5159L7.00951e-06 92.4046L0 0.5H441L441 92.4046L435.794 94.1737C430.587 95.976 419.991 99.4643 409.456 98.1603C399.044 96.8065 388.509 90.6604 377.912 87.5292C367.5 84.4313 356.995 84.4313 346.369 87.0891C335.956 89.7468 325.513 95.0624 315.131 95.5026C304.412 95.976 294 91.491 283.588 91.5159C272.869 91.491 262.487 95.976 252.044 96.8314C241.631 97.7201 231.004 95.0624 220.5 92.4046C210.088 89.7468 199.491 87.0891 188.956 85.7602C178.544 84.4313 168.009 84.4313 157.413 87.0891C147 89.7468 136.496 95.0624 125.869 96.3912C115.456 97.7201 105.013 95.0624 94.6312 95.951C83.9125 96.8065 73.5 101.292 63.0875 100.378C52.3687 99.4643 41.9869 93.3182 31.5438 91.0757C21.1313 88.8332 10.5044 90.6604 5.23688 91.5159Z" fill="#BD83EB"/>
</svg>
