<svg width="442" height="101" viewBox="0 0 442 101" fill="none" xmlns="http://www.w3.org/2000/svg">
<path d="M5.34375 94.7126L0.75 97.4987V0.5H441.75V97.4987L437.156 93.043L436.866 92.7636C432.183 88.261 423.185 79.6096 414.188 77.4635C405 75.2722 395.812 79.6549 386.625 81.9193C377.438 84.1419 368.25 84.1419 359.062 85.8115C349.875 87.4811 340.688 90.8203 331.5 93.043C322.312 95.3074 313.125 96.3509 303.938 93.6065C294.75 90.8203 285.562 84.1419 276.375 84.695C267.188 85.2898 258 93.0117 248.812 95.2761C239.625 97.4987 230.438 94.1595 221.25 92.4899C212.062 90.8203 202.875 90.8203 193.688 92.4899C184.5 94.1595 175.312 97.4987 166.125 99.1683C156.938 100.838 147.75 100.838 138.562 99.7214C129.375 98.6466 120.188 96.3509 111 96.3822C101.812 96.3509 92.625 98.6466 83.4375 96.3822C74.25 94.1595 65.0625 87.4811 55.875 84.1419C46.6875 80.8027 37.5 80.8027 28.3125 83.5889C19.125 86.3333 9.9375 91.9682 5.34375 94.7126Z" fill="#BD83EB"/>
</svg>
