<svg width="442" height="283" viewBox="0 0 442 283" fill="none" xmlns="http://www.w3.org/2000/svg">
<path d="M436.263 279.105L441.5 280.853L441.5 0.500031L0.500116 0.500053L0.500125 253.398C5.70636 257.697 21.5088 261.731 32.0438 269.527C42.4563 277.421 52.9913 284.286 63.5875 281.72C74 279.056 84.5044 266.961 95.1313 266.03C105.544 265.164 115.987 275.623 126.369 279.987C137.087 284.286 147.5 282.651 157.913 278.238C168.631 273.826 179.013 266.961 189.456 268.645C199.869 270.394 210.496 280.853 221 278.238C231.413 275.624 242.009 259.934 252.544 259.934C262.956 259.934 273.491 275.624 284.088 277.372C294.5 279.056 305.004 266.961 315.631 264.297C326.044 261.731 336.487 268.596 346.869 268.645C357.588 268.596 368 261.731 378.413 260.8C389.131 259.934 399.513 265.164 409.956 269.527C420.369 273.826 430.996 277.421 436.263 279.105Z" fill="#BD83EB"/>
</svg>
