<svg width="442" height="100" viewBox="0 0 442 100" fill="none" xmlns="http://www.w3.org/2000/svg">
<path d="M6.16564 79.4228H0.500019L0.5 0.097168H441.5V90.5075L435.988 91.1195C430.169 91.7776 418.899 92.9323 407.506 92.355C396.175 91.7776 384.966 89.2374 373.513 86.8126L373.353 86.7775C362.377 84.3634 350.98 81.8566 339.825 83.7297C328.494 85.5425 317.101 91.7776 305.831 92.355C294.5 92.9323 283.199 88.0827 271.837 84.9651C260.506 81.8476 249.267 80.6929 237.844 84.9651C226.512 89.2374 215.334 99.1675 204.156 99.7448C192.825 100.322 181.432 91.7777 170.162 89.8956C158.831 88.0827 147.5 92.9323 136.169 94.8144C124.838 96.6272 113.568 95.4725 102.175 96.0499C90.8438 96.6272 79.6656 99.1675 68.4875 96.6619C57.1563 94.2024 45.7331 86.8126 34.4937 83.1177C23.1626 79.4228 11.8008 79.4228 6.16575 79.4228H6.16564Z" fill="#BD83EB"/>
</svg>
