<svg width="321" height="100" viewBox="0 0 321 100" fill="none" xmlns="http://www.w3.org/2000/svg">
<path d="M0 74.7577L5.98774e-06 0H321V97.0592C315.264 98.1216 306.147 99.7442 300.404 99.9066C293.183 100.111 280.378 94.1759 272.254 91.8177C264.13 89.4817 256.005 88.2667 247.881 89.4651C239.757 90.6414 231.632 94.1759 223.508 94.1759C215.384 94.1759 207.259 90.6414 199.135 88.5815C191.011 86.4994 182.886 85.9472 174.762 87.3996C166.638 88.8742 158.513 92.4086 150.389 94.1759C142.265 95.9431 134.14 95.9431 126.016 95.0595C117.892 94.1759 109.767 92.4086 101.643 90.9341C93.5185 89.4817 85.3942 88.2667 77.2698 89.4651C69.1455 90.6414 61.0212 94.1759 52.8968 95.3522C44.7725 96.5506 36.6481 95.3356 28.5238 95.3522C25.4372 95.3459 20.5787 94.6869 15.7403 93.8721C6.49833 92.3156 0 84.1299 0 74.7577Z" fill="#BD83EB"/>
</svg>
